<svg xmlns="http://www.w3.org/2000/svg" class="svgColor" viewBox="0 0 421.65 142.84"><defs><style>.cls-1,.cls-2,.cls-3{stroke:#000;}.cls-1{stroke-miterlimit:10;stroke-width:0.28px;}.cls-2,.cls-3{fill:none;}.cls-2{stroke-width:1.08px;}.cls-3{stroke-linecap:round;stroke-width:1.09px;}</style></defs><g id="Layer_2" data-name="Layer 2"><g id="Layer_1-2" data-name="Layer 1"><path d="M40.17,15.07c.54.24,1,.41,1.36.62,4.9,2.54,9.78,5.11,14.7,7.61a2,2,0,0,1,.94.8,2,2,0,0,1,.26,1.2V52.88A7.48,7.48,0,0,0,61.35,60c3.85,2.21,8.1,0,8.15-4.44.09-8.76,0-17.53,0-26.29a2,2,0,0,0-.88-1.36Q54.85,20.68,41,13.54a2.12,2.12,0,0,0-.83-.08,2,2,0,0,0-.78.26q-7.65,5.55-15.19,11.19a2,2,0,0,0-.5.62,2,2,0,0,0-.21.75c-.06,10.25-.33,20.5,0,30.73.32,9.64,5.33,16.89,13.12,22.27C45.91,85.69,56,86,66.45,83c.23-.07.45-.13.68-.18a2.79,2.79,0,0,1,.37.14c-1.13.63-2.1,1.23-3.12,1.73A44.53,44.53,0,0,1,17.62,9.37C30.53-.29,45-2.83,60,3.37c16.56,6.79,26.59,19.39,28.86,37.4A40.15,40.15,0,0,1,84.14,65.1C77.21,77.94,63,79.8,52.42,73.85c-8.24-4.64-12.25-12-12.28-21.42V16.12a9.21,9.21,0,0,1,0-1.05Z"/><path d="M154.87,22.38V54.32c0,16.49-10.11,24.94-24.13,24.94-13.39,0-24.78-8.13-24.78-24.94V22.38H116.4V54.32c0,10,5.73,15.38,14.42,15.38s13.63-5.82,13.63-15.38V22.38Z"/><path d="M192.62,78.06V57.51c0-6-3.27-10.52-9.48-10.52-6,0-10,5-10,11V78.06H163.5V38.71h8.68l.64,5.34c4-3.91,8-5.9,12.91-5.9,9.24,0,16.64,6.93,16.64,19.28V78.06Z"/><path d="M221.24,27.72c0,7.56-11.47,7.56-11.47,0S221.24,20.15,221.24,27.72ZM210.61,38.63V78.06h9.73V38.63Z"/><path d="M229.85,78.06V22.38h40.07V32.5H240.37V47.71h28v9.72h-28V78.06Z"/><path d="M307.62,38.79h9.32V78.06h-9.17l-.47-5.73c-2.27,4.67-8.37,6.85-12.75,6.93-11.63.08-20.23-7.09-20.23-20.87,0-13.55,9-20.64,20.47-20.56,5.26,0,10.28,2.47,12.51,6.38ZM284,58.39c0,7.48,5.17,11.94,11.63,11.94,15.29,0,15.29-23.81,0-23.81-6.47,0-11.64,4.37-11.64,11.87Z"/><path d="M334.14,38.79l.71,4.54c3-4.86,7.09-5.58,11.08-5.58A15.14,15.14,0,0,1,356,41.5l-4.42,8.44a9.87,9.87,0,0,0-7-2.55c-5.1,0-9.8,2.71-9.8,10V78.1h-9.72V38.79Z"/><path d="M385.83,78.06v-21c0-5.18-2.71-9.88-8.05-9.88s-8.36,4.7-8.36,9.88v21H359.7V38.71h9l.72,4.78c2.07-4,6.61-5.42,10.35-5.42,4.71,0,9.4,1.91,11.63,7.33,3.52-5.57,8-7.17,13.15-7.17,11.15,0,16.65,6.85,16.65,18.64V78.06h-9.72V56.89c0-5.18-2.15-9.56-7.4-9.56s-8.53,4.54-8.53,9.72v21Z"/><path d="M365.83,136.17h4.45c1.19,0,2.88.73,2.88,2.12s-1.69,1.84-2.88,1.84h-4.45Zm0-6.09h4.45c1.85,0,2.42,1.19,2.42,1.89,0,.88-.6,1.65-2.42,1.65h-4.45Zm4.45-2.64H363v15.4h7.31c3.19,0,5.76-1.1,5.76-4.53a3.75,3.75,0,0,0-2.46-3.43,3.14,3.14,0,0,0,2-3C375.58,128.8,373.31,127.44,370.28,127.44ZM389.56,140h-8.64V136.5h8.34v-2.7h-8.34v-3.54h8.64v-2.82H378v15.4h11.52Zm7.13,2.86h2.91V130.08h4.88v-2.64H391.81v2.64h4.88Zm21.79,0h3.17l-6.91-15.4h-3.17l-6.91,15.4h3.15l1.32-2.9h8.05ZM416,137.23h-5.72l2.86-6.56Z"/><path class="cls-1" d="M234.12,93.72h2.71v9.48h.07a5.6,5.6,0,0,1,5.14-2.78c3.74,0,6.39,3.12,6.36,7.7,0,5.39-3.4,8.07-6.77,8.07a5.39,5.39,0,0,1-5-2.83h-.09l-.12,2.49H234c.06-1,.12-2.55.12-3.89Zm2.71,16.08a5.25,5.25,0,0,0,.13,1,4.23,4.23,0,0,0,4.11,3.21c2.87,0,4.59-2.34,4.59-5.8,0-3-1.56-5.61-4.49-5.61A4.38,4.38,0,0,0,237,106a5.57,5.57,0,0,0-.16,1.12Z"/><path class="cls-1" d="M252.64,100.76l3.31,8.92c.34,1,.71,2.18,1,3.09H257c.28-.91.59-2.06,1-3.15l3-8.86h2.89l-4.11,10.76c-2,5.17-3.3,7.82-5.18,9.44a7.36,7.36,0,0,1-3.36,1.78l-.69-2.31a7,7,0,0,0,2.4-1.34,8.25,8.25,0,0,0,2.31-3,2.08,2.08,0,0,0,.22-.66,2.26,2.26,0,0,0-.19-.71l-5.58-13.91Z"/><path d="M312.87,115.85a8.07,8.07,0,0,1-4.54-1.22,7.41,7.41,0,0,1-2.75-3.26,11.09,11.09,0,0,1-.91-4.54,10.93,10.93,0,0,1,.91-4.52A7.38,7.38,0,0,1,308.33,99a9.08,9.08,0,0,1,9.09,0,7.4,7.4,0,0,1,2.76,3.27,10.78,10.78,0,0,1,.93,4.52,10.94,10.94,0,0,1-.93,4.54,7.43,7.43,0,0,1-2.76,3.26A8.11,8.11,0,0,1,312.87,115.85Zm0-1.95a5.61,5.61,0,0,0,3.34-1,5.46,5.46,0,0,0,2-2.53,9.73,9.73,0,0,0,.63-3.59,9.53,9.53,0,0,0-.63-3.56,5.42,5.42,0,0,0-2-2.55,6.39,6.39,0,0,0-6.67,0,5.46,5.46,0,0,0-1.94,2.55,9.53,9.53,0,0,0-.63,3.56,9.71,9.71,0,0,0,.63,3.58,5.48,5.48,0,0,0,1.94,2.54A5.58,5.58,0,0,0,312.87,113.9Zm11.75-10.71h2.06v2.44a3.77,3.77,0,0,1,.87-1.46,3.92,3.92,0,0,1,2.8-1.19,3.78,3.78,0,0,1,1.11.17,2.73,2.73,0,0,1,1,.51l-1,1.75A2.86,2.86,0,0,0,330,105a3.06,3.06,0,0,0-1.62.49,3.57,3.57,0,0,0-1.27,1.53,6.18,6.18,0,0,0-.49,2.6v6h-2Zm14.21,12.66a6,6,0,0,1-3.18-.86,6.06,6.06,0,0,1-2.18-2.34,6.92,6.92,0,0,1-.78-3.27,6.7,6.7,0,0,1,.78-3.22,5.87,5.87,0,0,1,2.18-2.32,6.1,6.1,0,0,1,8.55,2.32,6.75,6.75,0,0,1,.78,3.22,6.92,6.92,0,0,1-.78,3.27A6.11,6.11,0,0,1,342,115,6,6,0,0,1,338.83,115.85Zm0-1.83a3.7,3.7,0,0,0,2.14-.62,4,4,0,0,0,1.36-1.67,5.8,5.8,0,0,0,.46-2.35,5.56,5.56,0,0,0-.46-2.3,3.84,3.84,0,0,0-1.36-1.66,3.69,3.69,0,0,0-2.14-.61,3.64,3.64,0,0,0-2.13.61,3.8,3.8,0,0,0-1.35,1.65,5.57,5.57,0,0,0-.46,2.31,5.8,5.8,0,0,0,.46,2.35,4,4,0,0,0,1.35,1.68A3.64,3.64,0,0,0,338.83,114Zm9.77-16h5.06a7.75,7.75,0,0,1,3.14.6,4.62,4.62,0,0,1,2.89,4.46,4.52,4.52,0,0,1-2.87,4.4,8.1,8.1,0,0,1-3.16.57h-2.88v7.58H348.6Zm5.06,8a4.73,4.73,0,0,0,2.89-.74,2.59,2.59,0,0,0,1-2.18,2.69,2.69,0,0,0-1-2.22,4.49,4.49,0,0,0-2.86-.78h-2.88V106Zm13.23,9.84a6,6,0,0,1-3.18-.86,6.14,6.14,0,0,1-2.18-2.34,7,7,0,0,1-.77-3.27,6.81,6.81,0,0,1,.77-3.22,6.17,6.17,0,0,1,8.54-2.32,5.83,5.83,0,0,1,2.19,2.32,6.76,6.76,0,0,1,.79,3.22,6.93,6.93,0,0,1-.79,3.27,5.94,5.94,0,0,1-5.37,3.2Zm0-1.83a3.67,3.67,0,0,0,2.14-.62,4,4,0,0,0,1.36-1.67,5.8,5.8,0,0,0,.46-2.35,5.56,5.56,0,0,0-.46-2.3,3.84,3.84,0,0,0-1.36-1.66,4,4,0,0,0-4.27,0,3.8,3.8,0,0,0-1.35,1.65,5.74,5.74,0,0,0-.46,2.31,6,6,0,0,0,.46,2.35,4,4,0,0,0,1.35,1.68A3.68,3.68,0,0,0,366.89,114Zm13.94,1.83a5.52,5.52,0,0,1-3.1-.86,5.6,5.6,0,0,1-2-2.33,7.62,7.62,0,0,1-.67-3.23,7.77,7.77,0,0,1,.65-3.16,5.51,5.51,0,0,1,1.93-2.38,5.29,5.29,0,0,1,3.14-.91,5.41,5.41,0,0,1,3.1.9,5.31,5.31,0,0,1,2,2.6l-2,.79a3.55,3.55,0,0,0-1.21-1.74,3.07,3.07,0,0,0-1.92-.63,3.14,3.14,0,0,0-2,.63,3.7,3.7,0,0,0-1.2,1.66,6.66,6.66,0,0,0,0,4.49,3.68,3.68,0,0,0,1.18,1.64,3.23,3.23,0,0,0,2,.61,3.14,3.14,0,0,0,1.93-.62,3.3,3.3,0,0,0,1.16-1.71l1.92.72a5.17,5.17,0,0,1-1.91,2.61A5.24,5.24,0,0,1,380.83,115.85ZM388.77,98h2.11v11.4l5.84-6.24h2.76l-4.58,4.71,5.23,7.74h-2.5l-4.16-6.43L390.88,112v3.68h-2.11Zm18,17.82a5.94,5.94,0,0,1-3.25-.85,5.36,5.36,0,0,1-2-2.29,7.47,7.47,0,0,1-.69-3.24,7.89,7.89,0,0,1,.66-3.24,5.56,5.56,0,0,1,2-2.37,5.47,5.47,0,0,1,3.14-.88,5.26,5.26,0,0,1,3.19.9,5.11,5.11,0,0,1,1.8,2.25,7.38,7.38,0,0,1,.54,2.77c0,.22,0,.45,0,.67s0,.37-.06.47h-9a4.61,4.61,0,0,0,1.08,2.87,3.5,3.5,0,0,0,2.68,1,4.88,4.88,0,0,0,1.85-.33,4.83,4.83,0,0,0,1.57-1.16l1.47,1.28a6.24,6.24,0,0,1-4.91,2.13ZM410,108.5a4.83,4.83,0,0,0,0-.79,3.56,3.56,0,0,0-.53-1.47,3,3,0,0,0-1.15-1.07,3.47,3.47,0,0,0-1.72-.41,3.08,3.08,0,0,0-2.43,1,4.81,4.81,0,0,0-1.09,2.72Zm9.18,7.35a3.46,3.46,0,0,1-2.62-1,3.8,3.8,0,0,1-.93-2.73V105h-2v-1.78h2.08V99.75l2.08-1.52v5h3.36V105h-3.36v6.84a2.48,2.48,0,0,0,.45,1.66,1.74,1.74,0,0,0,1.36.51,3.32,3.32,0,0,0,.81-.1,4.76,4.76,0,0,0,.73-.25v1.92a3.41,3.41,0,0,1-.84.21A6.38,6.38,0,0,1,419.2,115.85Z"/><path class="cls-2" d="M287.51,110a10.66,10.66,0,0,1-.9,4.76,6.81,6.81,0,0,1-3.05,3.41,7.7,7.7,0,0,1-3.23.44,6.49,6.49,0,0,1-4.93-2.87,8,8,0,0,1-1.08-4.48,5.8,5.8,0,0,1,3.86-5.3c2.3-.72,5.39-.4,7.56-.4"/><path class="cls-3" d="M289.42,111.55s-1.64-2.28-1.91-2.18a21.16,21.16,0,0,0-1.9,2.18"/><path class="cls-2" d="M286.84,101.26a11.28,11.28,0,0,1,.89-4.94,6.81,6.81,0,0,1,3-3.41,7.72,7.72,0,0,1,3.23-.45,6.53,6.53,0,0,1,4.93,2.87A8,8,0,0,1,300,99.82a5.79,5.79,0,0,1-3.86,5.29c-2.29.72-8.22.41-10.82.41"/><path class="cls-3" d="M285,99.86s1.64,2.29,1.91,2.18a21.33,21.33,0,0,0,1.9-2.18"/></g></g></svg>