<svg width="250" height="65" viewBox="0 0 250 65" fill="none" xmlns="http://www.w3.org/2000/svg">
<path d="M23.8399 9.33204C24.1604 9.48062 24.4334 9.58586 24.6471 9.71586C27.5554 11.2882 30.4519 12.8792 33.3721 14.4268C33.6052 14.5222 33.8016 14.6954 33.9304 14.9193C34.0593 15.1433 34.1134 15.4055 34.0843 15.6649V32.7384C34.0258 33.6285 34.214 34.5173 34.6265 35.2989C35.0391 36.0804 35.6585 36.7217 36.411 37.1461C38.6961 38.5142 41.2186 37.1461 41.2483 34.3975C41.3017 28.9746 41.2483 23.5455 41.2483 18.1226C41.2265 17.9506 41.1683 17.7859 41.078 17.6403C40.9877 17.4947 40.8674 17.3719 40.726 17.2807C35.2773 14.2927 29.8148 11.3275 24.3384 8.38489C24.1809 8.33054 24.0139 8.31236 23.849 8.33159C23.684 8.35083 23.525 8.40702 23.3828 8.49632C20.3558 10.7868 17.3505 13.0959 14.367 15.4235C14.2464 15.5287 14.1471 15.6579 14.0747 15.8035C14.0024 15.9491 13.9585 16.1082 13.9456 16.2716C13.91 22.6169 13.7497 28.9622 13.9456 35.2951C14.1355 41.2627 17.1092 45.7509 21.7328 49.0814C27.2468 53.0495 33.2415 53.2414 39.438 51.3842C39.5745 51.3409 39.7051 51.3038 39.8416 51.2728C39.9179 51.2925 39.9916 51.3216 40.0612 51.3595C39.3905 51.7495 38.8148 52.1209 38.2094 52.4304C33.0906 55.0903 27.2807 55.94 21.6579 54.8511C16.0351 53.7622 10.9049 50.7938 7.04278 46.3947C-3.55779 34.4717 -2.00865 15.5288 10.4556 5.80345C18.1182 -0.176595 26.7126 -1.74899 35.6156 2.08914C45.4446 6.2925 51.3978 14.0926 52.7451 25.2417C53.3561 30.4454 52.3734 35.7173 49.9377 40.3032C45.8245 48.2518 37.3962 49.4033 31.1107 45.7199C26.2199 42.8475 23.8399 38.2913 23.8221 32.4598V9.98205C23.8161 9.76521 23.8221 9.54818 23.8399 9.33204V9.33204Z" fill="black"/>
<path d="M91.9224 13.8594V33.6319C91.9224 43.8401 85.9218 49.0711 77.6004 49.0711C69.653 49.0711 62.8926 44.0382 62.8926 33.6319V13.8594H69.0891V33.6319C69.0891 39.8224 72.4901 43.1529 77.6479 43.1529C82.8057 43.1529 85.7319 39.55 85.7319 33.6319V13.8594H91.9224Z" fill="black"/>
<path d="M114.325 48.3275V35.6059C114.325 31.8916 112.384 29.0935 108.698 29.0935C105.137 29.0935 102.763 32.1888 102.763 35.9031V48.3275H97.041V23.9678H102.193L102.573 27.2735C104.947 24.853 107.321 23.6211 110.235 23.6211C115.72 23.6211 120.112 27.9111 120.112 35.5564V48.3275H114.325Z" fill="black"/>
<path d="M131.316 17.1627C131.316 21.8428 124.508 21.8428 124.508 17.1627C124.508 12.4827 131.316 12.4765 131.316 17.1627ZM125.006 23.9166V48.3258H130.776V23.9166H125.006Z" fill="black"/>
<path d="M136.424 48.3282V13.8594H160.207V20.1242H142.668V29.54H159.287V35.5572H142.668V48.3282H136.424Z" fill="black"/>
<path d="M182.581 24.0166H188.113V48.3267H182.67L182.391 44.7796C181.044 47.6706 177.423 49.0201 174.824 49.0696C167.921 49.1191 162.816 44.6805 162.816 36.15C162.816 27.7618 168.158 23.3728 174.966 23.4223C178.088 23.4223 181.068 24.9513 182.391 27.3718L182.581 24.0166ZM168.568 36.15C168.568 40.7805 171.636 43.5415 175.471 43.5415C184.546 43.5415 184.546 28.8019 175.471 28.8019C171.63 28.8019 168.562 31.5071 168.562 36.15H168.568Z" fill="black"/>
<path d="M198.323 24.0153L198.744 26.8258C200.525 23.8172 202.952 23.3714 205.321 23.3714C207.521 23.3514 209.651 24.1779 211.303 25.6929L208.68 30.9177C207.548 29.8427 206.055 29.2757 204.525 29.3391C201.498 29.3391 198.709 31.0167 198.709 35.5296V48.3502H192.939V24.0153H198.323Z" fill="black"/>
<path d="M229.007 48.3262V35.3261C229.007 32.1194 227.399 29.2099 224.229 29.2099C221.06 29.2099 219.267 32.1194 219.267 35.3261V48.3262H213.498V23.9665H218.84L219.267 26.9256C220.496 24.4494 223.19 23.5703 225.41 23.5703C228.2 23.5703 230.99 24.7527 232.313 28.108C234.396 24.6598 237.061 23.6694 240.118 23.6694C246.736 23.6694 250.001 27.9099 250.001 35.2085V48.3262H244.231V35.2209C244.231 32.0142 242.955 29.3027 239.833 29.3027C236.711 29.3027 234.776 32.1132 234.776 35.3199V48.32L229.007 48.3262Z" fill="black"/>
<path d="M244.715 51.3809H218.835C215.983 51.3809 213.672 53.7929 213.672 56.7683V59.6125C213.672 62.588 215.983 65 218.835 65H244.715C247.566 65 249.878 62.588 249.878 59.6125V56.7683C249.878 53.7929 247.566 51.3809 244.715 51.3809Z" fill="black"/>
<path d="M225.019 59.1323C225.211 59.3833 225.314 59.6962 225.31 60.0175C225.315 60.2969 225.243 60.5719 225.102 60.8099C224.956 61.0433 224.751 61.2298 224.509 61.3485C224.209 61.4815 223.885 61.5469 223.559 61.5404H221.238V55.907H223.458C223.784 55.8985 224.107 55.9618 224.408 56.0927C224.65 56.202 224.856 56.3827 225.001 56.6127C225.14 56.8333 225.212 57.0919 225.209 57.3556C225.217 57.6524 225.127 57.9429 224.954 58.1789C224.786 58.404 224.553 58.5668 224.289 58.6432C224.581 58.7098 224.84 58.8833 225.019 59.1323ZM222.295 58.2408H223.28C223.492 58.2526 223.701 58.1894 223.874 58.0613C224.006 57.9222 224.08 57.7342 224.08 57.5382C224.08 57.3423 224.006 57.1542 223.874 57.0151C223.703 56.882 223.493 56.8163 223.28 56.8294H222.295V58.2408ZM223.998 60.4261C224.072 60.3583 224.13 60.2741 224.168 60.1798C224.206 60.0855 224.223 59.9835 224.218 59.8813C224.222 59.7744 224.204 59.6678 224.164 59.5692C224.124 59.4707 224.063 59.3827 223.986 59.3118C223.807 59.1666 223.584 59.094 223.357 59.1075H222.295V60.6242H223.381C223.604 60.634 223.824 60.5593 223.998 60.4137V60.4261Z" fill="white"/>
<path d="M235.921 55.9062V56.8163H234.515V61.5272H233.434V56.8163H231.998V55.9062H235.921Z" fill="white"/>
<path d="M228.242 56.8166V58.228H230.059V59.1318H228.242V60.6238H230.29V61.54H227.162V55.9004H230.29V56.8166H228.242Z" fill="white"/>
<path d="M240.998 60.4566H238.855L238.499 61.5276H237.365L239.3 55.9004H240.558L242.493 61.5276H241.354L240.998 60.4566ZM240.707 59.5528L239.929 57.2066L239.146 59.5528H240.707Z" fill="white"/>
</svg>
