<svg width="250" height="65" viewBox="0 0 250 65" fill="none" xmlns="http://www.w3.org/2000/svg">
<path d="M23.8399 9.33234C24.1604 9.48092 24.4334 9.58616 24.6471 9.71616C27.5554 11.2886 30.4519 12.8796 33.3721 14.4273C33.6052 14.5226 33.8016 14.6958 33.9304 14.9198C34.0593 15.1438 34.1134 15.406 34.0843 15.6654V32.7394C34.0257 33.6295 34.214 34.5184 34.6265 35.3C35.0391 36.0816 35.6585 36.7228 36.411 37.1472C38.6961 38.5154 41.2186 37.1472 41.2483 34.3986C41.3017 28.9755 41.2483 23.5462 41.2483 18.1232C41.2265 17.9512 41.1683 17.7865 41.078 17.6409C40.9877 17.4953 40.8674 17.3724 40.726 17.2812C35.2773 14.2932 29.8148 11.3278 24.3384 8.38516C24.1809 8.33081 24.0139 8.31263 23.8489 8.33186C23.684 8.35109 23.525 8.40729 23.3828 8.49659C20.3558 10.7872 17.3505 13.0963 14.367 15.424C14.2464 15.5292 14.1471 15.6584 14.0747 15.804C14.0024 15.9496 13.9585 16.1087 13.9456 16.2721C13.91 22.6176 13.7497 28.9631 13.9456 35.2962C14.1355 41.2641 17.1092 45.7523 21.7328 49.0829C27.2468 53.0512 33.2415 53.2431 39.438 51.3859C39.5745 51.3425 39.7051 51.3054 39.8416 51.2744C39.9179 51.2941 39.9916 51.3232 40.0612 51.3611C39.3905 51.7511 38.8148 52.1226 38.2094 52.4321C33.0906 55.0921 27.2807 55.9418 21.6579 54.8529C16.035 53.7639 10.9049 50.7955 7.04278 46.3962C-3.55778 34.4728 -2.00865 15.5292 10.4556 5.80363C18.1182 -0.176601 26.7126 -1.74904 35.6156 2.0892C45.4446 6.2927 51.3978 14.093 52.7451 25.2425C53.356 30.4463 52.3734 35.7184 49.9377 40.3045C45.8244 48.2534 37.3962 49.4048 31.1107 45.7214C26.2199 42.8489 23.8399 38.2925 23.8221 32.4609V9.98237C23.8161 9.76551 23.8221 9.54849 23.8399 9.33234V9.33234Z" fill="white"/>
<path d="M91.9224 13.8594V33.6325C91.9224 43.841 85.9218 49.0722 77.6004 49.0722C69.653 49.0722 62.8926 44.0391 62.8926 33.6325V13.8594H69.0891V33.6325C69.0891 39.8232 72.4901 43.1538 77.6479 43.1538C82.8057 43.1538 85.7319 39.5508 85.7319 33.6325V13.8594H91.9224Z" fill="white"/>
<path d="M114.325 48.3282V35.6063C114.325 31.8919 112.384 29.0937 108.698 29.0937C105.137 29.0937 102.763 32.189 102.763 35.9035V48.3282H97.041V23.9678H102.193L102.573 27.2736C104.947 24.853 107.321 23.6211 110.235 23.6211C115.72 23.6211 120.112 27.9113 120.112 35.5568V48.3282H114.325Z" fill="white"/>
<path d="M131.316 17.1628C131.316 21.843 124.508 21.843 124.508 17.1628C124.508 12.4827 131.316 12.4765 131.316 17.1628ZM125.006 23.9169V48.3269H130.776V23.9169H125.006Z" fill="white"/>
<path d="M136.426 48.3293V13.8594H160.209V20.1244H142.67V29.5405H159.289V35.5578H142.67V48.3293H136.426Z" fill="white"/>
<path d="M182.583 24.0205H188.115V48.3314H182.672L182.393 44.7842C181.046 47.6752 177.425 49.0248 174.826 49.0743C167.923 49.1239 162.818 44.6851 162.818 36.1543C162.818 27.7659 168.16 23.3767 174.968 23.4262C178.09 23.4262 181.07 24.9553 182.393 27.3759L182.583 24.0205ZM168.57 36.1543C168.57 40.785 171.638 43.546 175.473 43.546C184.548 43.546 184.548 28.8059 175.473 28.8059C171.632 28.8059 168.564 31.5113 168.564 36.1543H168.57Z" fill="white"/>
<path d="M198.323 24.0153L198.744 26.8259C200.525 23.8172 202.952 23.3714 205.321 23.3714C207.521 23.3514 209.651 24.178 211.303 25.693L208.68 30.9179C207.548 29.8429 206.055 29.2759 204.525 29.3393C201.498 29.3393 198.709 31.017 198.709 35.53V48.351H192.939V24.0153H198.323Z" fill="white"/>
<path d="M229.007 48.327V35.3265C229.007 32.1197 227.399 29.2101 224.229 29.2101C221.06 29.2101 219.267 32.1197 219.267 35.3265V48.327H213.498V23.9665H218.84L219.267 26.9257C220.496 24.4494 223.19 23.5703 225.41 23.5703C228.2 23.5703 230.99 24.7527 232.313 28.1081C234.396 24.6599 237.061 23.6694 240.118 23.6694C246.736 23.6694 250.001 27.91 250.001 35.2089V48.327H244.231V35.2212C244.231 32.0144 242.955 29.3029 239.833 29.3029C236.711 29.3029 234.776 32.1135 234.776 35.3203V48.3208L229.007 48.327Z" fill="white"/>
<path d="M244.715 51.3809H218.835C215.983 51.3809 213.672 53.793 213.672 56.7685V59.6128C213.672 62.5883 215.983 65.0004 218.835 65.0004H244.715C247.566 65.0004 249.878 62.5883 249.878 59.6128V56.7685C249.878 53.793 247.566 51.3809 244.715 51.3809Z" fill="white"/>
<path d="M225.019 59.1343C225.211 59.3853 225.314 59.6983 225.31 60.0196C225.315 60.299 225.243 60.574 225.102 60.812C224.956 61.0454 224.751 61.2319 224.509 61.3506C224.209 61.4836 223.885 61.549 223.559 61.5425H221.238V55.909H223.458C223.784 55.9005 224.107 55.9638 224.408 56.0947C224.65 56.2039 224.856 56.3847 225.001 56.6147C225.14 56.8352 225.212 57.0939 225.209 57.3576C225.217 57.6544 225.127 57.9449 224.954 58.1809C224.786 58.406 224.553 58.5688 224.289 58.6452C224.581 58.7118 224.84 58.8854 225.019 59.1343ZM222.295 58.2428H223.28C223.492 58.2547 223.701 58.1914 223.874 58.0633C224.006 57.9242 224.08 57.7362 224.08 57.5402C224.08 57.3442 224.006 57.1562 223.874 57.0171C223.703 56.884 223.493 56.8182 223.28 56.8314H222.295V58.2428ZM223.998 60.4282C224.072 60.3604 224.13 60.2762 224.168 60.1819C224.206 60.0876 224.223 59.9856 224.218 59.8834C224.222 59.7765 224.204 59.6698 224.164 59.5713C224.124 59.4727 224.063 59.3848 223.986 59.3138C223.807 59.1686 223.584 59.096 223.357 59.1096H222.295V60.6263H223.381C223.604 60.6362 223.824 60.5614 223.998 60.4158V60.4282Z" fill="black"/>
<path d="M235.923 55.9102V56.8202H234.517V61.5313H233.436V56.8202H232V55.9102H235.923Z" fill="black"/>
<path d="M228.242 56.8186V58.2301H230.059V59.1339H228.242V60.6259H230.29V61.5421H227.162V55.9023H230.29V56.8186H228.242Z" fill="black"/>
<path d="M240.998 60.4587H238.855L238.499 61.5297H237.365L239.3 55.9023H240.558L242.493 61.5297H241.354L240.998 60.4587ZM240.707 59.5549L239.929 57.2086L239.146 59.5549H240.707Z" fill="black"/>
</svg>
