<svg width="422" height="124" viewBox="0 0 422 124" fill="none" xmlns="http://www.w3.org/2000/svg">
<g clip-path="url(#clip0)">
<path d="M40.1796 15.0747C40.7196 15.3147 41.1796 15.4847 41.5396 15.6947C46.4396 18.2347 51.32 20.8047 56.24 23.3047C56.631 23.4574 56.962 23.7351 57.18 24.0947C57.392 24.4604 57.483 24.884 57.44 25.3047V52.865C57.337 54.3 57.653 55.735 58.35 56.995C59.039 58.264 60.081 59.306 61.35 59.995C65.2 62.205 69.45 59.995 69.5 55.555C69.59 46.795 69.5 38.0247 69.5 29.2647C69.46 28.9868 69.362 28.7207 69.21 28.4847C69.06 28.2484 68.858 28.0499 68.62 27.9047C59.446 23.0847 50.243 18.298 41.0096 13.5447C40.7423 13.4567 40.4595 13.426 40.1796 13.4547C39.9024 13.4838 39.6355 13.5762 39.3996 13.7247C34.2996 17.4247 29.2363 21.1547 24.2096 24.9147C24.0057 25.0845 23.836 25.2915 23.7096 25.5247C23.5899 25.7616 23.5185 26.02 23.4996 26.2847C23.4396 36.5347 23.1696 46.785 23.4996 57.015C23.8196 66.655 28.8296 73.905 36.6196 79.285C45.9096 85.695 56.01 86.005 66.45 83.005C66.68 82.935 66.9 82.875 67.13 82.825C67.258 82.858 67.382 82.905 67.5 82.965C66.37 83.595 65.4 84.195 64.38 84.695C55.753 88.988 45.9643 90.36 36.4896 88.605C27.0181 86.844 18.3765 82.049 11.8696 74.945C7.64428 70.402 4.41969 65.023 2.40429 59.155C0.388885 53.287 -0.372516 47.062 0.169484 40.8816C0.711384 34.7012 2.54468 28.7034 5.55058 23.2761C8.55648 17.8488 12.6682 13.1129 17.6196 9.37474C30.5296 -0.285263 45.0096 -2.82527 60.01 3.37473C76.57 10.1647 86.6 22.7647 88.87 40.7747C89.897 49.181 88.241 57.696 84.14 65.105C77.22 77.945 63.01 79.805 52.43 73.865C44.1896 69.225 40.1796 61.865 40.1496 52.445V16.1347C40.1296 15.785 40.1296 15.4344 40.1496 15.0847L40.1796 15.0747Z" fill="url(#paint0_linear)"/>
<path d="M154.893 22.3848V54.325C154.893 70.815 144.773 79.265 130.753 79.265C117.373 79.265 105.973 71.135 105.973 54.325V22.3848H116.413V54.325C116.413 64.325 122.153 69.705 130.833 69.705C139.513 69.705 144.463 63.885 144.463 54.325V22.3848H154.893Z" fill="url(#paint1_linear)"/>
<path d="M192.632 78.064V57.514C192.632 51.514 189.362 46.994 183.152 46.994C177.152 46.994 173.152 51.994 173.152 57.994V78.064H163.512V38.7143H172.192L172.832 44.054C176.832 40.1443 180.832 38.1543 185.742 38.1543C194.982 38.1543 202.382 45.084 202.382 57.434V78.064H192.632Z" fill="url(#paint2_linear)"/>
<path d="M221.247 27.7245C221.247 35.2845 209.777 35.2845 209.777 27.7245C209.777 20.1645 221.247 20.1545 221.247 27.7245ZM210.627 38.6345V78.065H220.347V38.6345H210.627Z" fill="url(#paint3_linear)"/>
<path d="M229.859 78.065V22.3848H269.929V32.5048H240.379V47.715H268.379V57.435H240.379V78.065H229.859Z" fill="url(#paint4_linear)"/>
<path d="M307.628 38.7946H316.948V78.065H307.778L307.308 72.335C305.038 77.005 298.938 79.185 294.558 79.265C282.928 79.345 274.328 72.1749 274.328 58.3949C274.328 44.8449 283.328 37.7547 294.798 37.8347C300.058 37.8347 305.078 40.3046 307.308 44.2149L307.628 38.7946ZM284.008 58.3949C284.008 65.8749 289.178 70.335 295.638 70.335C310.928 70.335 310.928 46.525 295.638 46.525C289.168 46.525 283.998 50.8949 283.998 58.3949H284.008Z" fill="url(#paint5_linear)"/>
<path d="M334.15 38.7946L334.86 43.335C337.86 38.4746 341.95 37.7546 345.94 37.7546C349.645 37.7182 353.232 39.054 356.01 41.505L351.59 49.945C349.684 48.205 347.169 47.289 344.59 47.395C339.49 47.395 334.79 50.105 334.79 57.395V78.105H325.07V38.7946H334.15Z" fill="url(#paint6_linear)"/>
<path d="M385.841 78.064V57.064C385.841 51.884 383.141 47.184 377.841 47.184C372.541 47.184 369.471 51.884 369.471 57.064V78.064H359.711V38.7142H368.711L369.431 43.494C371.501 39.4942 376.051 38.0742 379.781 38.0742C384.491 38.0742 389.181 39.9842 391.411 45.404C394.931 39.8342 399.411 38.2342 404.561 38.2342C415.711 38.2342 421.211 45.084 421.211 56.874V78.064H411.491V56.864C411.491 51.684 409.341 47.304 404.091 47.304C398.841 47.304 395.561 51.844 395.561 57.024V78.024L385.841 78.064Z" fill="url(#paint7_linear)"/>
<path d="M234.132 93.7148H236.842V103.195H236.912C237.43 102.303 238.183 101.572 239.09 101.081C239.997 100.591 241.022 100.36 242.052 100.415C245.792 100.415 248.442 103.535 248.412 108.115C248.412 113.515 245.012 116.195 241.642 116.195C240.625 116.243 239.616 116.002 238.731 115.499C237.845 114.996 237.121 114.253 236.642 113.355H236.552L236.432 115.845H234.012C234.072 114.845 234.132 113.295 234.132 111.955V93.7148ZM236.842 109.805C236.853 110.142 236.896 110.476 236.972 110.805C237.198 111.723 237.726 112.539 238.472 113.121C239.217 113.703 240.136 114.018 241.082 114.015C243.952 114.015 245.672 111.685 245.672 108.225C245.672 105.225 244.112 102.605 241.182 102.605C240.213 102.625 239.278 102.965 238.523 103.573C237.769 104.181 237.237 105.022 237.012 105.965C236.921 106.332 236.867 106.707 236.852 107.085L236.842 109.805Z" fill="url(#paint8_linear)"/>
<path d="M252.653 100.764L255.963 109.674C256.303 110.674 256.673 111.854 256.963 112.764H257.013C257.293 111.854 257.603 110.704 258.013 109.614L261.013 100.764H263.903L259.793 111.514C257.793 116.694 256.493 119.344 254.613 120.964C253.665 121.836 252.507 122.446 251.253 122.734L250.563 120.434C251.44 120.142 252.254 119.687 252.963 119.094C253.959 118.266 254.75 117.218 255.273 116.034C255.381 115.83 255.455 115.611 255.493 115.384C255.47 115.135 255.406 114.891 255.303 114.664L249.723 100.764H252.653Z" fill="url(#paint9_linear)"/>
<path d="M312.881 115.864C311.279 115.922 309.698 115.497 308.341 114.644C307.124 113.851 306.168 112.717 305.591 111.384C304.97 109.952 304.66 108.405 304.681 106.844C304.659 105.29 304.969 103.749 305.591 102.324C306.167 100.989 307.124 99.8523 308.341 99.0543C309.699 98.2063 311.28 97.7823 312.881 97.8343C314.485 97.7823 316.068 98.2073 317.431 99.0543C318.65 99.8523 319.61 100.988 320.191 102.324C320.823 103.746 321.141 105.288 321.121 106.844C321.139 108.407 320.822 109.955 320.191 111.384C319.61 112.718 318.65 113.851 317.431 114.644C316.071 115.499 314.485 115.924 312.881 115.864ZM312.881 113.914C314.067 113.959 315.236 113.626 316.221 112.964C317.129 112.344 317.827 111.462 318.221 110.434C318.656 109.288 318.87 108.07 318.851 106.844C318.87 105.628 318.656 104.42 318.221 103.284C317.827 102.252 317.13 101.363 316.221 100.734C315.235 100.076 314.065 99.7475 312.881 99.7945C311.699 99.7475 310.533 100.076 309.551 100.734C308.666 101.374 307.991 102.261 307.611 103.284C307.183 104.428 306.98 105.644 307.011 106.864C306.993 108.087 307.207 109.301 307.641 110.444C308.021 111.465 308.696 112.349 309.581 112.984C310.562 113.616 311.716 113.923 312.881 113.864V113.914ZM324.631 103.204H326.691V105.644C326.866 105.101 327.164 104.605 327.561 104.194C327.93 103.806 328.376 103.5 328.871 103.294C329.343 103.098 329.849 102.996 330.361 102.994C330.737 102.996 331.111 103.053 331.471 103.164C331.838 103.262 332.18 103.44 332.471 103.684L331.471 105.424C331.044 105.183 330.561 105.055 330.071 105.054C329.496 105.056 328.934 105.223 328.451 105.534C327.891 105.918 327.45 106.452 327.181 107.074C326.831 107.892 326.663 108.776 326.691 109.664V115.664H324.691L324.631 103.204ZM338.841 115.864C337.72 115.887 336.617 115.588 335.661 115.004C334.738 114.434 333.985 113.626 333.481 112.664C332.957 111.658 332.689 110.539 332.701 109.404C332.687 108.28 332.955 107.169 333.481 106.174C333.983 105.217 334.736 104.415 335.661 103.854C336.62 103.277 337.721 102.979 338.841 102.994C339.958 102.984 341.056 103.285 342.011 103.864C342.94 104.425 343.701 105.226 344.211 106.184C344.735 107.179 345.004 108.29 344.991 109.414C345.002 110.549 344.734 111.668 344.211 112.674C343.699 113.637 342.94 114.445 342.011 115.014C341.056 115.593 339.957 115.888 338.841 115.864ZM338.841 114.034C339.601 114.053 340.348 113.836 340.981 113.414C341.581 112.996 342.052 112.417 342.341 111.744C342.655 111.005 342.812 110.208 342.801 109.404C342.814 108.61 342.657 107.823 342.341 107.094C342.054 106.423 341.583 105.847 340.981 105.434C340.345 105.02 339.599 104.808 338.841 104.824C338.085 104.806 337.342 105.019 336.711 105.434C336.113 105.844 335.644 106.417 335.361 107.084C335.044 107.816 334.887 108.607 334.901 109.404C334.89 110.208 335.046 111.005 335.361 111.744C335.649 112.417 336.116 112.999 336.711 113.424C337.342 113.837 338.087 114.043 338.841 114.014V114.034ZM348.611 98.0344H353.671C354.748 98.0144 355.817 98.2184 356.811 98.6344C357.677 98.9964 358.418 99.6055 358.941 100.384C359.457 101.193 359.721 102.136 359.701 103.094C359.729 104.046 359.467 104.985 358.951 105.784C358.428 106.551 357.691 107.146 356.831 107.494C355.826 107.893 354.752 108.087 353.671 108.064H350.791V115.644H348.611V98.0344ZM353.671 106.034C354.689 106.106 355.702 105.846 356.561 105.294C356.891 105.039 357.154 104.707 357.328 104.327C357.502 103.948 357.582 103.532 357.561 103.114C357.58 102.692 357.5 102.271 357.326 101.885C357.153 101.499 356.89 101.16 356.561 100.894C355.723 100.318 354.715 100.043 353.701 100.114H350.821V106.034H353.671ZM366.901 115.864C365.78 115.887 364.677 115.588 363.721 115.004C362.8 114.431 362.048 113.623 361.541 112.664C361.024 111.656 360.76 110.537 360.771 109.404C360.759 108.281 361.023 107.172 361.541 106.174C362.045 105.219 362.798 104.417 363.721 103.854C364.68 103.277 365.781 102.979 366.901 102.994C368.02 102.979 369.122 103.277 370.081 103.854C371.01 104.412 371.768 105.214 372.271 106.174C372.798 107.169 373.07 108.279 373.061 109.404C373.069 110.539 372.797 111.659 372.271 112.664C371.766 113.629 371.009 114.437 370.081 115.004C369.124 115.588 368.021 115.887 366.901 115.864ZM366.901 114.034C367.661 114.055 368.409 113.838 369.041 113.414C369.641 112.996 370.112 112.417 370.401 111.744C370.715 111.005 370.872 110.208 370.861 109.404C370.874 108.61 370.717 107.823 370.401 107.094C370.114 106.423 369.643 105.847 369.041 105.434C368.406 105.019 367.659 104.806 366.901 104.824C366.146 104.809 365.403 105.022 364.771 105.434C364.173 105.844 363.704 106.417 363.421 107.084C363.108 107.818 362.952 108.608 362.961 109.404C362.956 110.207 363.112 111.003 363.421 111.744C363.709 112.417 364.176 112.999 364.771 113.424C365.404 113.835 366.147 114.041 366.901 114.014V114.034ZM380.841 115.864C379.744 115.896 378.664 115.597 377.741 115.004C376.868 114.432 376.175 113.624 375.741 112.674C375.285 111.663 375.057 110.564 375.071 109.454C375.064 108.364 375.285 107.284 375.721 106.284C376.126 105.325 376.795 104.499 377.651 103.904C378.575 103.277 379.674 102.959 380.791 102.994C381.892 102.972 382.973 103.286 383.891 103.894C384.813 104.531 385.512 105.44 385.891 106.494L383.891 107.284C383.674 106.598 383.252 105.994 382.681 105.554C382.134 105.125 381.456 104.899 380.761 104.914C380.04 104.887 379.332 105.113 378.761 105.554C378.211 105.978 377.794 106.551 377.561 107.204C377.295 107.925 377.163 108.687 377.171 109.454C377.162 110.219 377.295 110.978 377.561 111.694C377.793 112.341 378.202 112.909 378.741 113.334C379.321 113.754 380.025 113.969 380.741 113.944C381.436 113.962 382.116 113.743 382.671 113.324C383.23 112.893 383.637 112.294 383.831 111.614L385.751 112.344C385.406 113.392 384.737 114.303 383.841 114.944C382.96 115.555 381.912 115.876 380.841 115.864ZM388.781 98.0445H390.891V109.454L396.731 103.204H399.491L394.911 107.864L400.141 115.604H397.641L393.481 109.174L390.891 111.934V115.604H388.781V98.0445ZM406.781 115.864C405.64 115.899 404.512 115.608 403.531 115.024C402.657 114.466 401.962 113.668 401.531 112.724C401.061 111.71 400.825 110.603 400.841 109.484C400.829 108.37 401.054 107.266 401.501 106.244C401.929 105.284 402.623 104.465 403.501 103.884C404.432 103.275 405.528 102.965 406.641 102.994C407.773 102.943 408.892 103.259 409.831 103.894C410.632 104.458 411.257 105.239 411.631 106.144C411.987 107.024 412.171 107.965 412.171 108.914C412.171 109.134 412.171 109.364 412.171 109.584C412.171 109.804 412.171 109.964 412.111 110.064H403.111C403.135 111.113 403.516 112.122 404.191 112.924C404.542 113.27 404.962 113.538 405.424 113.711C405.886 113.883 406.379 113.956 406.871 113.924C407.503 113.935 408.131 113.823 408.721 113.594C409.32 113.322 409.855 112.927 410.291 112.434L411.761 113.714C411.142 114.403 410.385 114.955 409.541 115.334C408.675 115.703 407.741 115.884 406.801 115.864H406.781ZM410.011 108.514C410.033 108.255 410.033 107.994 410.011 107.734C409.945 107.211 409.764 106.709 409.481 106.264C409.198 105.81 408.802 105.438 408.331 105.184C407.802 104.902 407.21 104.76 406.611 104.774C406.157 104.752 405.704 104.829 405.284 105.002C404.864 105.175 404.487 105.439 404.181 105.774C403.543 106.546 403.162 107.497 403.091 108.494L410.011 108.514ZM419.211 115.864C418.728 115.89 418.246 115.814 417.795 115.642C417.344 115.47 416.933 115.205 416.591 114.864C416.264 114.493 416.013 114.061 415.854 113.592C415.694 113.124 415.628 112.628 415.661 112.134V104.944H413.661V103.164H415.741V99.7243L417.821 98.2043V103.204H421.181V104.984H417.821V111.864C417.769 112.451 417.929 113.036 418.271 113.514C418.447 113.692 418.66 113.83 418.895 113.918C419.13 114.006 419.381 114.042 419.631 114.024C419.904 114.025 420.176 113.991 420.441 113.924C420.69 113.864 420.934 113.784 421.171 113.684V115.594C420.9 115.699 420.618 115.773 420.331 115.814C419.959 115.859 419.585 115.875 419.211 115.864Z" fill="url(#paint10_linear)"/>
<path d="M284.382 113.443C284.457 115.253 284.122 117.056 283.401 118.713C282.755 120.323 281.582 121.657 280.079 122.488C278.954 122.904 277.754 123.07 276.56 122.975C275.486 122.896 274.444 122.569 273.513 122.018C272.582 121.468 271.788 120.708 271.19 119.798C270.328 118.298 269.918 116.573 270.013 114.838C270.05 113.543 270.471 112.29 271.222 111.242C271.972 110.195 273.017 109.403 274.218 108.971C276.724 108.173 280.09 108.528 282.454 108.528" stroke="url(#paint11_linear)" stroke-width="1.08"/>
<path d="M286.464 115.157C286.464 115.157 284.676 112.633 284.382 112.744C283.639 113.499 282.947 114.306 282.312 115.157" stroke="url(#paint12_linear)" stroke-width="1.09" stroke-linecap="round"/>
<path d="M283.652 103.766C283.567 101.892 283.898 100.023 284.621 98.2969C285.253 96.6959 286.407 95.3629 287.889 94.5219C289.014 94.1029 290.213 93.9329 291.408 94.0239C292.481 94.1059 293.522 94.4339 294.452 94.9849C295.383 95.5349 296.178 96.2929 296.778 97.2009C297.654 98.7009 298.075 100.43 297.987 102.172C297.95 103.465 297.528 104.717 296.778 105.762C296.027 106.807 294.983 107.597 293.783 108.028C291.288 108.825 284.828 108.482 281.996 108.482" stroke="url(#paint13_linear)" stroke-width="1.08"/>
<path d="M281.648 102.217C281.648 102.217 283.435 104.752 283.729 104.63C284.472 103.874 285.163 103.068 285.799 102.217" stroke="url(#paint14_linear)" stroke-width="1.09" stroke-linecap="round"/>
</g>
<defs>
<linearGradient id="paint0_linear" x1="44.5832" y1="3.45029e-05" x2="44.5832" y2="89.348" gradientUnits="userSpaceOnUse">
<stop stop-color="#E80163" stop-opacity="0.9"/>
<stop offset="1" stop-color="#2155E9" stop-opacity="0.9"/>
</linearGradient>
<linearGradient id="paint1_linear" x1="130.433" y1="22.3848" x2="130.433" y2="79.265" gradientUnits="userSpaceOnUse">
<stop stop-color="#E80163" stop-opacity="0.9"/>
<stop offset="1" stop-color="#2155E9" stop-opacity="0.9"/>
</linearGradient>
<linearGradient id="paint2_linear" x1="182.947" y1="38.1543" x2="182.947" y2="78.064" gradientUnits="userSpaceOnUse">
<stop stop-color="#E80163" stop-opacity="0.9"/>
<stop offset="1" stop-color="#2155E9" stop-opacity="0.9"/>
</linearGradient>
<linearGradient id="paint3_linear" x1="215.512" y1="22.0508" x2="215.512" y2="78.065" gradientUnits="userSpaceOnUse">
<stop stop-color="#E80163" stop-opacity="0.9"/>
<stop offset="1" stop-color="#2155E9" stop-opacity="0.9"/>
</linearGradient>
<linearGradient id="paint4_linear" x1="249.894" y1="22.3848" x2="249.894" y2="78.065" gradientUnits="userSpaceOnUse">
<stop stop-color="#E80163" stop-opacity="0.9"/>
<stop offset="1" stop-color="#2155E9" stop-opacity="0.9"/>
</linearGradient>
<linearGradient id="paint5_linear" x1="295.638" y1="37.834" x2="295.638" y2="79.265" gradientUnits="userSpaceOnUse">
<stop stop-color="#E80163" stop-opacity="0.9"/>
<stop offset="1" stop-color="#2155E9" stop-opacity="0.9"/>
</linearGradient>
<linearGradient id="paint6_linear" x1="340.54" y1="37.7539" x2="340.54" y2="78.105" gradientUnits="userSpaceOnUse">
<stop stop-color="#E80163" stop-opacity="0.9"/>
<stop offset="1" stop-color="#2155E9" stop-opacity="0.9"/>
</linearGradient>
<linearGradient id="paint7_linear" x1="390.461" y1="38.0742" x2="390.461" y2="78.064" gradientUnits="userSpaceOnUse">
<stop stop-color="#E80163" stop-opacity="0.9"/>
<stop offset="1" stop-color="#2155E9" stop-opacity="0.9"/>
</linearGradient>
<linearGradient id="paint8_linear" x1="241.212" y1="93.7148" x2="241.212" y2="116.201" gradientUnits="userSpaceOnUse">
<stop stop-color="#E80163" stop-opacity="0.9"/>
<stop offset="1" stop-color="#2155E9" stop-opacity="0.9"/>
</linearGradient>
<linearGradient id="paint9_linear" x1="256.813" y1="100.764" x2="256.813" y2="122.734" gradientUnits="userSpaceOnUse">
<stop stop-color="#E80163" stop-opacity="0.9"/>
<stop offset="1" stop-color="#2155E9" stop-opacity="0.9"/>
</linearGradient>
<linearGradient id="paint10_linear" x1="362.93" y1="97.8303" x2="362.93" y2="115.87" gradientUnits="userSpaceOnUse">
<stop stop-color="#E80163" stop-opacity="0.9"/>
<stop offset="1" stop-color="#2155E9" stop-opacity="0.9"/>
</linearGradient>
<linearGradient id="paint11_linear" x1="277.196" y1="108.449" x2="266.501" y2="123.731" gradientUnits="userSpaceOnUse">
<stop stop-color="#E80163" stop-opacity="0.9"/>
<stop offset="1" stop-color="#2155E9" stop-opacity="0.9"/>
</linearGradient>
<linearGradient id="paint12_linear" x1="284.389" y1="112.74" x2="284.389" y2="115.157" gradientUnits="userSpaceOnUse">
<stop stop-color="#E80163" stop-opacity="0.8"/>
<stop offset="1" stop-color="#2155E9" stop-opacity="0.9"/>
</linearGradient>
<linearGradient id="paint13_linear" x1="289.997" y1="93.9999" x2="299.628" y2="108.804" gradientUnits="userSpaceOnUse">
<stop stop-color="#E80163" stop-opacity="0.8"/>
<stop offset="1" stop-color="#2155E9" stop-opacity="0.9"/>
</linearGradient>
<linearGradient id="paint14_linear" x1="283.724" y1="102.217" x2="283.724" y2="104.634" gradientUnits="userSpaceOnUse">
<stop stop-color="#E80163" stop-opacity="0.8"/>
<stop offset="1" stop-color="#2155E9" stop-opacity="0.9"/>
</linearGradient>
<clipPath id="clip0">
<rect width="422" height="124" fill="white"/>
</clipPath>
</defs>
</svg>
