<svg xmlns="http://www.w3.org/2000/svg" xmlns:xlink="http://www.w3.org/1999/xlink"  style="background-color:rgb(248, 248, 255)" viewBox="0 0 421.18 89.3"><defs><style>.cls-1{fill:#000;}</style><linearGradient id="linear-gradient" x1="14.2" y1="14.47" x2="82.41" y2="-44.64" gradientTransform="matrix(1, 0, 0, -1, 0, 33.14)" gradientUnits="userSpaceOnUse"><stop offset="0" stop-color="#ec005c"/><stop offset="1" stop-color="#0062ff"/></linearGradient></defs><g id="Layer_2" data-name="Layer 2"><g id="Layer_1-2" data-name="Layer 1"><g id="Layer_2-2" data-name="Layer 2"><g id="Layer_1-2-2" data-name="Layer 1-2"><path class="cls-1" d="M40.14,15.07c.54.24,1,.41,1.36.62,4.9,2.54,9.78,5.11,14.7,7.61a1.9,1.9,0,0,1,1.2,2V52.88A7.51,7.51,0,0,0,61.32,60c3.85,2.21,8.1,0,8.15-4.44.09-8.76,0-17.53,0-26.29a1.86,1.86,0,0,0-.88-1.36Q54.82,20.66,41,13.54a1.9,1.9,0,0,0-1.61.18Q31.75,19.26,24.2,24.91a2,2,0,0,0-.71,1.37c-.06,10.25-.33,20.5,0,30.73.32,9.64,5.33,16.89,13.12,22.27C45.88,85.69,56,86,66.42,83c.23-.07.45-.13.68-.18a1.08,1.08,0,0,1,.37.14c-1.13.63-2.1,1.23-3.12,1.73a44.37,44.37,0,0,1-52.51-9.75C-6,55.68-3.41,25.08,17.59,9.37c12.91-9.66,27.35-12.2,42.35-6C76.5,10.16,86.53,22.76,88.8,40.77A40.14,40.14,0,0,1,84.11,65.1C77.18,77.94,63,79.8,52.39,73.85c-8.24-4.64-12.25-12-12.28-21.42V16.12A10.26,10.26,0,0,1,40.14,15.07Z"/><path d="M154.85,22.38V54.32c0,16.49-10.11,24.94-24.13,24.94-13.39,0-24.78-8.13-24.78-24.94V22.38h10.44V54.32c0,10,5.73,15.38,14.42,15.38s13.62-5.82,13.62-15.38V22.38Z"/><path d="M192.59,78.06V57.51c0-6-3.27-10.52-9.48-10.52-6,0-10,5-10,11V78.06h-9.64V38.71h8.68l.64,5.34c4-3.91,8-5.9,12.91-5.9,9.24,0,16.64,6.93,16.64,19.28V78.06Z"/><path d="M221.22,27.72c0,7.56-11.47,7.56-11.47,0S221.22,20.15,221.22,27.72ZM210.59,38.63V78.06h9.72V38.63Z"/><path d="M229.82,78.06V22.38h40.07V32.5H240.34V47.71h28v9.72h-28V78.06Z"/><path d="M307.59,38.79h9.32V78.06h-9.17l-.47-5.73C305,77,298.9,79.18,294.52,79.26c-11.63.08-20.23-7.09-20.23-20.87,0-13.55,9-20.64,20.47-20.56,5.26,0,10.28,2.47,12.51,6.38ZM284,58.39c0,7.48,5.17,11.94,11.63,11.94,15.29,0,15.29-23.81,0-23.81-6.47,0-11.64,4.37-11.64,11.87Z"/><path d="M334.11,38.79l.71,4.54c3-4.86,7.09-5.58,11.08-5.58A15,15,0,0,1,356,41.5l-4.42,8.44a9.76,9.76,0,0,0-7-2.55c-5.1,0-9.8,2.71-9.8,10V78.1h-9.72V38.79Z"/><path d="M385.81,78.06v-21c0-5.18-2.71-9.88-8.05-9.88s-8.36,4.7-8.36,9.88v21h-9.72V38.71h9l.72,4.78c2.07-4,6.61-5.42,10.35-5.42,4.7,0,9.4,1.91,11.63,7.33,3.51-5.57,8-7.17,13.15-7.17,11.15,0,16.65,6.85,16.65,18.64V78.06h-9.72V56.89c0-5.18-2.15-9.56-7.41-9.56s-8.52,4.54-8.52,9.72v21Z"/></g></g></g></g></svg>