<svg xmlns="http://www.w3.org/2000/svg" viewBox="0 0 421.18 89.3"><defs><style>.cls-1{fill:#f9f9f9;}</style></defs><g id="Layer_2" data-name="Layer 2"><g id="Layer_1-2" data-name="Layer 1"><g id="Layer_2-2" data-name="Layer 2"><g id="Layer_1-2-2" data-name="Layer 1-2"><path class="cls-1" d="M40.14,15.07c.54.24,1,.41,1.36.62,4.9,2.54,9.78,5.11,14.7,7.61a1.9,1.9,0,0,1,1.2,2V52.88A7.51,7.51,0,0,0,61.32,60c3.85,2.21,8.1,0,8.15-4.44.09-8.76,0-17.53,0-26.29a1.86,1.86,0,0,0-.88-1.36Q54.82,20.66,41,13.54a1.9,1.9,0,0,0-1.61.18Q31.75,19.26,24.2,24.91a2,2,0,0,0-.71,1.37c-.06,10.25-.33,20.5,0,30.73.32,9.64,5.33,16.89,13.12,22.27C45.88,85.69,56,86,66.42,83c.23-.07.45-.13.68-.18a1.08,1.08,0,0,1,.37.14c-1.13.63-2.1,1.23-3.12,1.73a44.37,44.37,0,0,1-52.51-9.75C-6,55.68-3.41,25.08,17.59,9.37c12.91-9.66,27.35-12.2,42.35-6C76.5,10.16,86.53,22.76,88.8,40.77A40.14,40.14,0,0,1,84.11,65.1C77.18,77.94,63,79.8,52.39,73.85c-8.24-4.64-12.25-12-12.28-21.42V16.12A10.26,10.26,0,0,1,40.14,15.07Z"/></g></g></g></g></svg>