<svg width="1858" height="373" viewBox="0 0 1858 373" fill="none" xmlns="http://www.w3.org/2000/svg">
<path d="M167.872 63.6085C170.117 64.6056 172.029 65.3118 173.526 66.1843C193.897 76.7368 214.185 87.414 234.639 97.8003C236.276 98.4341 237.656 99.5951 238.559 101.1C239.463 102.605 239.839 104.367 239.628 106.109V220.691C239.218 226.665 240.536 232.63 243.426 237.875C246.316 243.12 250.654 247.424 255.925 250.272C271.931 259.453 289.599 250.272 289.807 231.826C290.181 195.432 289.807 158.997 289.807 122.603C289.663 121.446 289.259 120.337 288.626 119.359C287.992 118.38 287.145 117.558 286.149 116.953C247.984 96.8725 209.75 76.9722 171.447 57.2521C170.345 56.876 169.174 56.7481 168.017 56.8773C166.859 57.0066 165.745 57.3899 164.754 57.9999C143.579 73.344 122.529 88.8404 101.603 104.489C100.759 105.195 100.063 106.062 99.556 107.039C99.0493 108.016 98.7418 109.084 98.6515 110.181C98.4021 152.765 97.2796 195.349 98.6515 237.85C99.9819 277.899 120.81 308.02 153.196 330.371C191.735 357.002 233.808 358.29 277.127 345.826C278.084 345.535 278.998 345.286 279.954 345.078C280.499 345.176 281.02 345.373 281.493 345.66C276.795 348.277 272.762 350.77 268.522 352.847C232.667 370.698 191.973 376.401 152.588 369.093C113.204 361.785 77.27 341.864 50.2182 312.341C-23.9493 232.324 -13.1817 105.195 74.1231 39.9276C127.795 -0.205171 187.827 -10.7577 250.188 15.0004C319.034 43.2097 360.732 95.5569 370.169 170.38C374.499 205.285 367.675 240.664 350.671 271.46C321.861 324.804 262.909 332.532 218.799 307.812C184.543 288.535 167.872 257.958 167.747 218.822V67.9708C167.714 66.5155 167.756 65.0595 167.872 63.6085V63.6085Z" fill="#F9F9F9"/>
<path d="M644.763 93.978V226.674C644.763 295.182 602.732 330.288 544.445 330.288C488.778 330.288 441.426 296.512 441.426 226.674V93.978H484.829V226.674C484.829 268.219 508.65 290.571 544.778 290.571C580.905 290.571 601.401 266.391 601.401 226.674V93.978H644.763Z" fill="#F9F9F9"/>
<path d="M801.664 325.303V239.927C801.664 215 788.07 196.221 762.252 196.221C737.308 196.221 720.679 216.994 720.679 241.921V325.303H680.602V161.822H716.687L719.348 184.007C735.978 167.763 752.607 159.495 773.02 159.495C811.434 159.495 842.198 188.286 842.198 239.595V325.303H801.664Z" fill="#F9F9F9"/>
<path d="M920.693 116.163C920.693 147.571 873.008 147.571 873.008 116.163C873.008 84.7543 920.693 84.7128 920.693 116.163ZM876.5 161.489V325.302H916.91V161.489H876.5Z" fill="#F9F9F9"/>
<path d="M956.434 325.303V93.978H1123.02V136.022H1000.17V199.212H1116.58V239.595H1000.17V325.303H956.434Z" fill="#F9F9F9"/>
<path d="M1279.76 162.154H1318.51V325.302H1280.38L1278.43 301.497C1268.99 320.899 1243.63 329.955 1225.42 330.288C1177.07 330.62 1141.32 300.832 1141.32 243.583C1141.32 187.289 1178.74 157.833 1226.42 158.165C1248.29 158.165 1269.16 168.427 1278.43 184.671L1279.76 162.154ZM1181.69 243.583C1181.69 274.659 1203.18 293.188 1230.04 293.188C1293.6 293.188 1293.6 194.268 1230.04 194.268C1203.14 194.268 1181.65 212.424 1181.65 243.583H1181.69Z" fill="#F9F9F9"/>
<path d="M1390.01 162.155L1392.97 181.016C1405.44 160.825 1422.44 157.834 1439.03 157.834C1454.47 157.652 1469.44 163.203 1481.02 173.413L1462.64 208.478C1454.73 201.24 1444.26 197.431 1433.54 197.884C1412.34 197.884 1392.8 209.142 1392.8 239.429V325.469H1352.39V162.155H1390.01Z" fill="#F9F9F9"/>
<path d="M1604.95 325.302V238.057C1604.95 216.537 1593.69 197.01 1571.49 197.01C1549.29 197.01 1536.73 216.537 1536.73 238.057V325.302H1496.32V161.821H1533.74L1536.73 181.68C1545.34 165.062 1564.21 159.163 1579.76 159.163C1599.3 159.163 1618.84 167.098 1628.11 189.615C1642.7 166.475 1661.37 159.827 1682.78 159.827C1729.13 159.827 1752 188.286 1752 237.268V325.302H1711.59V237.351C1711.59 215.83 1702.65 197.634 1680.78 197.634C1658.91 197.634 1645.36 216.495 1645.36 238.016V325.261L1604.95 325.302Z" fill="#F9F9F9"/>
<rect x="1752" y="325" width="106" height="36" rx="18" fill="#F9F9F9"/>
<path d="M1787.22 342.384C1787.83 342.48 1788.38 342.728 1788.88 343.128C1789.39 343.528 1789.79 344.024 1790.08 344.616C1790.38 345.208 1790.54 345.84 1790.54 346.512C1790.54 347.36 1790.32 348.128 1789.89 348.816C1789.46 349.488 1788.82 350.024 1787.99 350.424C1787.18 350.808 1786.21 351 1785.09 351H1778.85V334.272H1784.85C1785.98 334.272 1786.95 334.464 1787.75 334.848C1788.55 335.216 1789.15 335.72 1789.55 336.36C1789.95 337 1790.15 337.72 1790.15 338.52C1790.15 339.512 1789.88 340.336 1789.34 340.992C1788.81 341.632 1788.1 342.096 1787.22 342.384ZM1781.03 341.496H1784.7C1785.73 341.496 1786.52 341.256 1787.08 340.776C1787.64 340.296 1787.92 339.632 1787.92 338.784C1787.92 337.936 1787.64 337.272 1787.08 336.792C1786.52 336.312 1785.71 336.072 1784.66 336.072H1781.03V341.496ZM1784.9 349.2C1785.98 349.2 1786.83 348.944 1787.44 348.432C1788.05 347.92 1788.35 347.208 1788.35 346.296C1788.35 345.368 1788.03 344.64 1787.39 344.112C1786.75 343.568 1785.9 343.296 1784.82 343.296H1781.03V349.2H1784.9ZM1795.75 336.048V341.64H1801.85V343.44H1795.75V349.2H1802.57V351H1793.57V334.248H1802.57V336.048H1795.75ZM1816.17 334.272V336.048H1811.61V351H1809.42V336.048H1804.84V334.272H1816.17ZM1828.74 347.28H1821.45L1820.1 351H1817.8L1823.85 334.368H1826.37L1832.39 351H1830.09L1828.74 347.28ZM1828.12 345.504L1825.1 337.056L1822.07 345.504H1828.12Z" fill="black"/>
</svg>
