<svg width="21" height="22" viewBox="0 0 21 22" fill="none" xmlns="http://www.w3.org/2000/svg">
<path d="M7.68495 3.33445L8.02206 3.21828V2.86172V2.44444C8.02206 1.38245 8.90869 0.5 10.0294 0.5C11.1501 0.5 12.0368 1.38245 12.0368 2.44444V2.86172V3.21829L12.3739 3.33445C15.1064 4.27603 17.0515 6.8113 17.0515 9.77778V15.8889V16.3889H17.5515H18.8051C19.2335 16.3889 19.5588 16.7241 19.5588 17.1111C19.5588 17.4981 19.2335 17.8333 18.8051 17.8333H1.25368C0.825379 17.8333 0.5 17.4981 0.5 17.1111C0.5 16.7241 0.82538 16.3889 1.25368 16.3889H2.50735H3.00735V15.8889V9.77778C3.00735 6.8113 4.95241 4.27603 7.68495 3.33445ZM10.0294 21.5C9.09062 21.5 8.31609 20.8808 8.08936 20.0556H11.9695C11.7427 20.8808 10.9682 21.5 10.0294 21.5Z" fill="white" stroke="black"/>
</svg>
