<svg width="20" height="20" viewBox="0 0 20 20" fill="none" xmlns="http://www.w3.org/2000/svg">
<path d="M13.235 9.11772L11.8552 11.5027L10.1385 10.8121L9.93849 10.7316L9.76831 10.864C9.43583 11.1226 9.06404 11.3368 8.67082 11.5053L8.4766 11.5886L8.44719 11.7978L8.19039 13.625H5.42528L5.16989 11.8078L5.14019 11.5965L4.94334 11.5141C4.5445 11.3471 4.18314 11.1341 3.84877 10.874L3.67859 10.7416L3.47858 10.8221L1.76186 11.5127L0.382103 9.12772L1.83987 7.98515L2.00802 7.85335L1.98039 7.6415C1.95171 7.4216 1.93354 7.2087 1.93354 7C1.93354 6.79116 1.95174 6.57864 1.9801 6.37067L2.00916 6.15754L1.83987 6.02485L0.382103 4.88228L1.76186 2.49727L3.47858 3.1879L3.67859 3.26837L3.84877 3.13601C4.18125 2.87741 4.55304 2.6632 4.94626 2.49468L5.14048 2.41144L5.16989 2.20219L5.42668 0.375H8.1918L8.44719 2.19219L8.47689 2.40351L8.67374 2.48592C9.07258 2.65287 9.43393 2.86594 9.76831 3.12601L9.93849 3.25837L10.1385 3.1779L11.8552 2.48727L13.235 4.87228L11.7772 6.01485L11.6091 6.14665L11.6367 6.3585C11.6654 6.5784 11.6835 6.7913 11.6835 7C11.6835 7.20884 11.6653 7.42135 11.637 7.62933L11.6079 7.84246L11.7772 7.97515L13.235 9.11772ZM4.43354 7C4.43354 8.30711 5.50143 9.375 6.80854 9.375C8.11565 9.375 9.18354 8.30711 9.18354 7C9.18354 5.69289 8.11565 4.625 6.80854 4.625C5.50143 4.625 4.43354 5.69289 4.43354 7Z" stroke="black" stroke-width="0.75"/>
<path d="M18.588 15.877L18.5571 16.0935L18.7303 16.227L19.5766 16.8794L18.8079 18.2033L17.8091 17.802L17.6034 17.7194L17.4318 17.8598C17.2483 18.0099 17.0221 18.1339 16.767 18.2473L16.5776 18.3315L16.5481 18.5365L16.397 19.585H14.8715L14.7204 18.5365L14.6893 18.3207L14.4864 18.241C14.2445 18.1459 14.0257 18.0154 13.8204 17.8547L13.6495 17.7209L13.4484 17.8025L12.4604 18.203L11.6875 16.8719L12.5297 16.2158L12.7012 16.0822L12.6705 15.867C12.6532 15.7461 12.6443 15.6139 12.6443 15.48C12.6443 15.3461 12.6532 15.2139 12.6705 15.093L12.7012 14.8778L12.5297 14.7442L11.6875 14.0881L12.4604 12.757L13.4484 13.1575L13.6495 13.2391L13.8204 13.1053C14.0175 12.951 14.2475 12.8256 14.5016 12.7127L14.6909 12.6285L14.7204 12.4235L14.8715 11.375H16.3856L16.5381 12.4335L16.5692 12.6493L16.7721 12.729C17.014 12.8241 17.2328 12.9546 17.4381 13.1153L17.609 13.2491L17.8101 13.1675L18.7981 12.767L19.571 14.0981L18.7288 14.7542L18.5433 14.8987L18.5926 15.1286C18.6151 15.2334 18.6243 15.3548 18.6243 15.49C18.6243 15.6103 18.6081 15.7362 18.588 15.877ZM13.9043 15.48C13.9043 16.4389 14.684 17.205 15.6293 17.205C16.5745 17.205 17.3543 16.4389 17.3543 15.48C17.3543 14.5229 16.5864 13.755 15.6293 13.755C14.6721 13.755 13.9043 14.5229 13.9043 15.48Z" stroke="black" stroke-width="0.75"/>
</svg>
